# AST/ASF file generated using VICON BodyLanguage
# -----------------------------------------------
:version 1.10
:name VICON
:units
  mass 1.0
  length 0.45
  angle deg
:documentation
   .ast/.asf automatically generated from VICON data using
   VICON BodyBuilder and BodyLanguage model FoxedUp or BRILLIANT.MOD
:root
   order TX TY TZ RX RY RZ
   axis XYZ
   position 0 0 0  
   orientation 0 0 0 
:bonedata
  begin
     id 1 
     name lhipjoint
     direction 0.575328 -0.747301 0.332475 
     length 2.40933 
     axis 0 0 0  XYZ
  end
  begin
     id 2 
     name lfemur
     direction 0.34202 -0.939693 0  
     length 7.31453  
     axis 0 0 20  XYZ
    dof rx ry rz
    limits (-160.0 20.0)
           (-70.0 70.0)
           (-60.0 70.0)
  end
  begin
     id 3 
     name ltibia
     direction 0.34202 -0.939693 0   
     length 7.82185   
     axis 0 0 20   XYZ
    dof rx
    limits (-10.0 170.0)
  end
  begin
     id 4 
     name lfoot
     direction 0.0795993 -0.218697 0.972541   
     length 2.19173   
     axis -90 7.62852e-016 20   XYZ
    dof rx rz
    limits (-45.0 90.0)
           (-70.0 20.0)
  end
  begin
     id 5 
     name ltoes
     direction 1.53537e-011 -4.21894e-011 1   
     length 1.10023   
     axis -90 7.62852e-016 20   XYZ
    dof rx
    limits (-90.0 20.0)
  end
  begin
     id 6 
     name rhipjoint
     direction -0.513884 -0.783789 0.348708   
     length 2.29716  
     axis 0 0 0  XYZ 
  end
  begin
     id 7 
     name rfemur
     direction -0.34202 -0.939693 0   
     length 7.59573   
     axis 0 0 -20   XYZ
    dof rx ry rz
    limits (-160.0 20.0)
           (-70.0 70.0)
           (-70.0 60.0)
  end
  begin
     id 8 
     name rtibia
     direction -0.34202 -0.939693 0   
     length 7.66402   
     axis 0 0 -20   XYZ
    dof rx
    limits (-10.0 170.0)
 end
 begin
     id 9 
     name rfoot
     direction -0.137793 -0.378584 0.915253   
     length 2.27056  
     axis -90 -7.62852e-016 -20   XYZ
    dof rx rz
    limits (-45.0 90.0)
           (-20.0 70.0)
  end
  begin
     id 10 
     name rtoes
     direction -1.53493e-011 -4.22159e-011 1   
     length 1.11766   
     axis -90 -7.62852e-016 -20   XYZ
    dof rx
    limits (-90.0 20.0)
  end
  begin
     id 11 
     name lowerback
     direction -0.00732775 0.998356 -0.05685   
     length 2.16513   
     axis 0 0 0   XYZ
    dof rx ry rz
    limits (-20.0 45.0)
           (-30.0 30.0)
           (-30.0 30.0)
  end
  begin
     id 12 
     name upperback
     direction 0.0218081 0.999627 -0.0164647   
     length 2.16755   
     axis 0 0 0   XYZ
    dof rx ry rz
    limits (-20.0 45.0)
           (-30.0 30.0)
           (-30.0 30.0)
  end
  begin
     id 13 
     name thorax
     direction 0.02365 0.999661 0.0108914   
     length 2.16932   
     axis 0 0 0   XYZ
    dof rx ry rz
    limits (-20.0 45.0)
           (-30.0 30.0)
           (-30.0 30.0)
  end
  begin
     id 14 
     name lowerneck
     direction -0.0523929 0.978385 0.200044   
     length 1.63877   
     axis 0 0 0   XYZ
    dof rx ry rz
    limits (-20.0 45.0)
           (-30.0 30.0)
           (-30.0 30.0)
  end
  begin
     id 15 
     name upperneck
     direction 0.0448674 0.981321 -0.187074   
     length 1.69014   
     axis 0 0 0   XYZ
    dof rx ry rz
    limits (-20.0 45.0)
           (-30.0 30.0)
           (-30.0 30.0)
  end
  begin
     id 16
     name head
     direction 0.0199089 0.996118 -0.0857429  
     length 1.70094  
     axis 0 0 0   XYZ
    dof rx ry rz
    limits (-20.0 45.0)
           (-30.0 30.0)
           (-30.0 30.0)
  end
  begin
     id 17 
     name lclavicle
     direction 0.940366 0.30191 -0.156722  
     length 3.37521  
     axis 0 0 0   XYZ
    dof ry rz
    limits (-20.0 10.0)
           (0.0 20.0)
  end
  begin
     id 18 
     name lhumerus
     direction 1 -4.4897e-011 -1.7911e-027   
     length 5.25287   
     axis 180 -30 -90   XYZ
    dof rx ry rz
    limits (-60.0 90.0)
           (-90.0 90.0)
           (-90.0 90.0)
  end
  begin
     id 19
     name lradius
     direction 1 -4.48951e-011 1.04424e-027   
     length 3.51014   
     axis 180 -30 -90   XYZ
    dof rx
    limits (-10.0 170.0)
  end
  begin
     id 20
     name lwrist
     direction 1 -4.48997e-011 -9.5942e-028   
     length 1.75507   
     axis 8.48502e-016 90 90   XYZ
    dof ry
    limits (-180.0 0.0)
 end
  begin
     id 21 
     name lhand
     direction 1 -4.48831e-011 -1.90777e-027   
     length 0.706179   
     axis 1.22306e-015 90 90   XYZ
    dof rx rz
    limits (-90.0 90.0)
           (-45.0 45.0)
  end
  begin
     id 22 
     name lfingers
     direction 1 -4.49108e-011 -3.85244e-027   
     length 0.569339   
     axis 2.44611e-015 90 90   XYZ
    dof rx
    limits (0.0 90.0)
  end
  begin
     id 23
     name lthumb
     direction 0.707107 -6.34953e-011 0.707107   
     length 0.817461   
     axis -90 45 -1.62303e-014   XYZ
    dof rx rz
    limits (-45.0 45.0)
           (-45.0 45.0)
  end
  begin
     id 24 
     name rclavicle
     direction -0.905329 0.382405 -0.184787   
     length 3.30787  
     axis 0 0 0   XYZ 
    dof ry rz
    limits (-10.0 20.0)
           (-20.0 0.0)
  end
  begin
     id 25 
     name rhumerus
     direction -1 -4.48953e-011 -9.15316e-029  
     length 5.28721   
     axis 180 30 90   XYZ
    dof rx ry rz
    limits (-90.0 60.0)
           (-90.0 90.0)
           (-90.0 90.0)
  end
  begin
     id 26 
     name rradius
     direction -1 -4.48987e-011 9.37824e-028   
     length 3.50544   
     axis 180 30 90   XYZ
    dof rx
    limits (-10.0 170.0)
  end
  begin
     id 27 
     name rwrist
     direction -1 -4.48967e-011 -9.58414e-028   
     length 1.75272   
     axis 8.48502e-016 -90 -90   XYZ
    dof ry
    limits (-180.0 0.0)
  end
  begin
     id 28
     name rhand
     direction -1 -4.48904e-011 -1.91266e-027   
     length 0.884996   
     axis 1.22306e-015 -90 -90   XYZ
    dof rx rz
    limits (-90.0 90.0)
           (-45.0 45.0)
  end
  begin
     id 29
     name rfingers
     direction -1 -4.4909e-011 -3.85015e-027   
     length 0.713507   
     axis 2.44611e-015 -90 -90   XYZ
    dof rx
    limits (0.0 90.0)
  end
  begin
     id 30
     name rthumb
     direction -0.707107 -6.34853e-011 0.707107   
     length 1.02446   
     axis -90 -45 1.62303e-014   XYZ
    dof rx rz
    limits (-45.0 45.0)
           (-45.0 45.0)
  end
:hierarchy
  begin
    root lhipjoint rhipjoint lowerback
    lhipjoint lfemur
    lfemur ltibia
    ltibia lfoot
    lfoot ltoes
    rhipjoint rfemur
    rfemur rtibia
    rtibia rfoot
    rfoot rtoes
    lowerback upperback
    upperback thorax
    thorax lowerneck lclavicle rclavicle
    lowerneck upperneck
    upperneck head
    lclavicle lhumerus
    lhumerus lradius
    lradius lwrist
    lwrist lhand lthumb
    lhand lfingers
    rclavicle rhumerus
    rhumerus rradius
    rradius rwrist
    rwrist rhand rthumb
    rhand rfingers
  end

#!OML:ASF F:\twosubjects\two\Thursday\Session 1\justin.ASF
:FULLY-SPECIFIED
:DEGREES
126
root 17.59 13.0522 9.83907 -180.05 -87.4327 156.339
lowerback 25.8631 4.29674 -0.303781
upperback 13.8939 4.09601 0.634178
thorax 1.03671 1.41935 -0.135146
lowerneck -21.568 -2.19188 -10.3155
upperneck 30.4853 -0.605668 2.5186
head 14.1098 -1.28552 2.62767
rclavicle 2.59973e-014 -1.06101e-014
rhumerus 37.3625 12.3398 -72.1624
rradius 62.1601
rwrist -33.6539
rhand 1.88078 1.2482
rfingers 7.12502
rthumb 27.3906 -26.7811
lclavicle 2.59973e-014 -1.06101e-014
lhumerus -4.00724 -25.4634 90.4267
lradius 58.9817
lwrist -14.7646
lhand -14.0525 31.893
lfingers 7.12502
lthumb 12.0785 61.5244
rfemur -46.4353 -6.89297 11.9789
rtibia 66.5068
rfoot 3.37449 -0.619462
rtoes -9.9213
lfemur -47.7655 12.2547 -13.5271
ltibia 71.6385
lfoot -0.0592239 -8.62411
ltoes -9.73704
127
root 17.5875 13.0576 9.83805 -177.482 -87.572 153.775
lowerback 25.7779 4.28556 -0.417113
upperback 13.9527 4.05281 0.568348
thorax 1.13967 1.39243 -0.126475
lowerneck -21.5378 -2.18404 -10.2462
upperneck 30.6409 -0.662849 2.60806
head 14.1742 -1.29724 2.64463
rclavicle 1.61544e-014 -4.84538e-016
rhumerus 37.7696 12.1037 -72.071
rradius 61.8481
rwrist -34.2262
rhand 0.244632 0.978877
rfingers 7.12502
rthumb 25.8247 -27.288
lclavicle 1.61544e-014 -4.84538e-016
lhumerus -3.79426 -25.3173 90.3628
lradius 58.8738
lwrist -14.9714
lhand -13.9624 31.8838
lfingers 7.12502
lthumb 12.1654 61.51
rfemur -46.4332 -7.13353 11.8846
rtibia 66.5416
rfoot 3.27853 -0.439871
rtoes -10.2345
lfemur -47.763 12.1825 -13.6683
ltibia 71.6093
lfoot -0.0755465 -8.59615
ltoes -8.1719
128
root 17.5843 13.0591 9.83576 -179.636 -87.6345 155.978
lowerback 25.763 4.30263 -0.284298
upperback 13.9527 4.10534 0.559974
thorax 1.15724 1.42803 -0.221772
lowerneck -21.4128 -2.26 -10.2854
upperneck 30.7172 -0.765874 2.56054
head 14.1905 -1.35788 2.61375
rclavicle 3.13086e-015 -3.03147e-015
rhumerus 38.178 11.8862 -72.3032
rradius 61.315
rwrist -34.5612
rhand -1.21496 1.19161
rfingers 7.12502
rthumb 24.4262 -27.2712
lclavicle 3.13086e-015 -3.03147e-015
lhumerus -3.71931 -25.3304 90.396
lradius 58.9225
lwrist -15.1664
lhand -13.3901 32.0689
lfingers 7.12502
lthumb 12.7172 61.6617
rfemur -46.4537 -7.14483 11.9843
rtibia 66.5656
rfoot 3.25871 -0.491758
rtoes -10.2895
lfemur -47.8303 12.2335 -13.5829
ltibia 71.606
lfoot -0.122336 -8.53239
ltoes -7.41668
129
root 17.5824 13.0594 9.83286 -181.842 -87.6475 158.299
lowerback 25.7975 4.44993 -0.0850977
upperback 13.9022 4.34918 0.625534
thorax 1.09527 1.56405 -0.324051
lowerneck -21.3158 -2.482 -10.4838
upperneck 30.9259 -1.03418 2.54703
head 14.2887 -1.50895 2.59567
rclavicle -7.88927e-015 -4.33599e-015
rhumerus 38.3857 11.012 -72.6878
rradius 60.7819
rwrist -33.8786
rhand -1.14786 1.41913
rfingers 7.12502
rthumb 24.4905 -27.035
lclavicle -7.88927e-015 -4.33599e-015
lhumerus -3.69336 -25.8237 90.6235
lradius 59.0105
lwrist -15.0528
lhand -13.2818 32.7271
lfingers 7.12502
lthumb 12.8215 62.3133
rfemur -46.5671 -7.10145 12.0934
rtibia 66.5835
rfoot 3.31981 -0.581702
rtoes -10.0917
lfemur -47.9791 12.283 -13.4971
ltibia 71.609
lfoot -0.134822 -8.68058
ltoes -8.92106
130
root 17.5811 13.0632 9.82908 -179.417 -87.7368 156.016
lowerback 25.6848 4.59843 -0.200961
upperback 13.9468 4.52176 0.737138
thorax 1.17966 1.64103 -0.173001
lowerneck -21.3337 -2.67238 -10.7671
upperneck 31.0472 -1.18791 2.49221
head 14.3666 -1.62159 2.59433
rclavicle -2.07233e-014 1.59773e-014
rhumerus 38.7656 10.1452 -72.8733
rradius 60.4545
rwrist -32.2219
rhand -0.550288 0.682625
rfingers 7.12502
rthumb 25.0632 -27.6928
lclavicle -2.07233e-014 1.59773e-014
lhumerus -3.40042 -26.0879 90.8868
lradius 58.9207
lwrist -14.972
lhand -13.5388 33.3672
lfingers 7.12502
lthumb 12.5738 62.9689
rfemur -46.6914 -7.10389 11.9918
rtibia 66.5894
rfoot 3.39518 -0.757037
rtoes -9.7606
lfemur -48.1356 12.2191 -13.6163
ltibia 71.595
lfoot 0.175943 -8.7353
ltoes -9.46341
131
root 17.5793 13.0664 9.8319 -176.466 -87.8345 153.144
lowerback 25.6185 4.49499 -0.427272
upperback 13.9404 4.34211 0.705708
thorax 1.18753 1.5393 -0.034391
lowerneck -21.0886 -2.53987 -10.7558
upperneck 30.9987 -0.954847 2.2441
head 14.2732 -1.55828 2.53143
rclavicle -1.89808e-014 1.21134e-014
rhumerus 39.2103 10.2189 -73.2315
rradius 60.3033
rwrist -30.7664
rhand -1.51332 -0.1804
rfingers 7.12502
rthumb 24.1401 -28.6815
lclavicle -1.89808e-014 1.21134e-014
lhumerus -3.29581 -25.5512 90.8889
lradius 58.8043
lwrist -15.0672
lhand -13.6704 33.4633
lfingers 7.12502
lthumb 12.4469 63.0727
rfemur -46.7468 -7.24319 11.8699
rtibia 66.5889
rfoot 3.4287 -0.813679
rtoes -9.77759
lfemur -48.2303 12.1483 -13.7725
ltibia 71.6008
lfoot 0.427431 -8.72657
ltoes -9.88022
132
root 17.5762 13.0657 9.83731 -182.58 -87.8951 159.237
lowerback 25.7523 4.33164 -0.140369
upperback 13.8001 4.20081 0.563513
thorax 1.0005 1.49551 -0.32521
lowerneck -20.5471 -2.32591 -10.3995
upperneck 31.0749 -0.804803 2.05314
head 14.1702 -1.49014 2.42005
rclavicle -6.28657e-014 5.31252e-014
rhumerus 39.3374 10.0266 -74.134
rradius 60.0035
rwrist -29.4239
rhand -2.86102 -0.338724
rfingers 7.12502
rthumb 22.8473 -29.0054
lclavicle -6.28657e-014 5.31252e-014
lhumerus -3.56232 -25.2433 90.754
lradius 58.7467
lwrist -15.2601
lhand -13.5637 32.9982
lfingers 7.12502
lthumb 12.5498 62.6013
rfemur -46.6921 -7.41268 12.1274
rtibia 66.5775
rfoot 3.36523 -0.577745
rtoes -9.86415
lfemur -48.2536 12.1667 -13.5536
ltibia 71.651
lfoot 0.0706756 -8.94486
ltoes -11.3379
133
root 17.5725 13.0607 9.84068 -192.257 -87.9768 168.894
lowerback 25.9003 4.2643 0.518243
upperback 13.7261 4.25905 0.41329
thorax 0.914075 1.57133 -0.879402
lowerneck -20.3213 -2.30252 -10.1386
upperneck 31.3115 -0.939094 2.13416
head 14.23 -1.51858 2.38777
rclavicle -7.30285e-014 5.37713e-014
rhumerus 39.4135 9.16049 -74.796
rradius 59.8981
rwrist -28.4886
rhand -3.03899 -0.941749
rfingers 7.12502
rthumb 22.6765 -29.6294
lclavicle -7.30285e-014 5.37713e-014
lhumerus -3.64719 -25.5847 90.571
lradius 58.7254
lwrist -15.4373
lhand -13.4617 32.5297
lfingers 7.12502
lthumb 12.6481 62.1268
rfemur -46.6353 -7.4962 12.4733
rtibia 66.5779
rfoot 3.2804 -0.407706
rtoes -9.60914
lfemur -48.3301 12.1146 -13.2061
ltibia 71.7174
lfoot -0.144276 -8.86533
ltoes -9.41337
134
root 17.5706 13.0633 9.84355 -198.271 -88.0679 174.983
lowerback 25.8777 4.10649 0.810407
upperback 13.8613 4.09641 0.3009
thorax 1.10738 1.50502 -1.12038
lowerneck -20.8526 -2.27455 -10.1455
upperneck 31.4953 -0.848127 2.22044
head 14.4207 -1.47194 2.44404
rclavicle -2.20651e-014 3.05134e-014
rhumerus 40.0876 8.84464 -75.2625
rradius 59.9744
rwrist -28.0788
rhand -2.2943 -1.88583
rfingers 7.12502
rthumb 23.3911 -30.4843
lclavicle -2.20651e-014 3.05134e-014
lhumerus -3.22196 -25.3822 90.1673
lradius 58.7304
lwrist -15.4667
lhand -13.5554 32.3798
lfingers 7.12502
lthumb 12.5578 61.9825
rfemur -46.7114 -7.63254 12.6733
rtibia 66.596
rfoot 3.3049 -0.401306
rtoes -9.55699
lfemur -48.474 12.0805 -13.0792
ltibia 71.7487
lfoot -0.129465 -8.62762
ltoes -6.75445
135
root 17.5695 13.0744 9.83949 -200.189 -88.0961 176.944
lowerback 25.7817 3.99198 0.65188
upperback 13.7608 3.92998 0.278949
thorax 1.02308 1.41791 -1.01398
lowerneck -20.1759 -2.11097 -10.462
upperneck 31.4453 -0.710214 2.53419
head 14.24 -1.41365 2.64894
rclavicle 2.10215e-014 -2.26615e-014
rhumerus 40.2588 9.06305 -75.9673
rradius 59.8504
rwrist -27.6729
rhand -1.27955 -2.09228
rfingers 7.12502
rthumb 24.3642 -30.5635
lclavicle 2.10215e-014 -2.26615e-014
lhumerus -3.49449 -24.895 90.1849
lradius 58.7891
lwrist -15.3807
lhand -13.7729 32.4987
lfingers 7.12502
lthumb 12.348 62.1141
rfemur -46.7587 -7.69624 12.7837
rtibia 66.6159
rfoot 3.3634 -0.43196
rtoes -10.0201
lfemur -48.4699 12.1918 -13.0627
ltibia 71.7225
lfoot -0.254789 -8.63057
ltoes -6.56053
